<mxfile host="app.diagrams.net" modified="2024-06-10T14:38:59.748Z" agent="Mozilla/5.0 (Windows NT 10.0; Win64; x64) AppleWebKit/537.36 (KHTML, like Gecko) Chrome/125.0.0.0 Safari/537.36" etag="xv2pc24IsjudXaAXKM_b" version="24.5.2" type="device">
  <diagram name="Pagina-1" id="PMANxddXe-PsFvcoSqXk">
    <mxGraphModel dx="1150" dy="490" grid="1" gridSize="10" guides="1" tooltips="1" connect="1" arrows="1" fold="1" page="1" pageScale="1" pageWidth="827" pageHeight="1169" math="0" shadow="0">
      <root>
        <mxCell id="0" />
        <mxCell id="1" parent="0" />
        <mxCell id="OKzWQZcMFeufaeWFBpB0-2" style="edgeStyle=orthogonalEdgeStyle;rounded=0;orthogonalLoop=1;jettySize=auto;html=1;entryX=0;entryY=0.5;entryDx=0;entryDy=0;exitX=1.007;exitY=0.399;exitDx=0;exitDy=0;exitPerimeter=0;" edge="1" parent="1" source="OKzWQZcMFeufaeWFBpB0-1" target="OKzWQZcMFeufaeWFBpB0-3">
          <mxGeometry relative="1" as="geometry">
            <mxPoint x="320" y="270" as="targetPoint" />
          </mxGeometry>
        </mxCell>
        <mxCell id="OKzWQZcMFeufaeWFBpB0-6" value="Yes" style="edgeLabel;html=1;align=center;verticalAlign=middle;resizable=0;points=[];" vertex="1" connectable="0" parent="OKzWQZcMFeufaeWFBpB0-2">
          <mxGeometry x="0.1602" y="3" relative="1" as="geometry">
            <mxPoint x="-9" y="3" as="offset" />
          </mxGeometry>
        </mxCell>
        <mxCell id="OKzWQZcMFeufaeWFBpB0-7" style="edgeStyle=orthogonalEdgeStyle;rounded=0;orthogonalLoop=1;jettySize=auto;html=1;entryX=0.5;entryY=0;entryDx=0;entryDy=0;" edge="1" parent="1" source="OKzWQZcMFeufaeWFBpB0-1" target="OKzWQZcMFeufaeWFBpB0-8">
          <mxGeometry relative="1" as="geometry">
            <mxPoint x="150" y="350" as="targetPoint" />
          </mxGeometry>
        </mxCell>
        <mxCell id="OKzWQZcMFeufaeWFBpB0-9" value="No" style="edgeLabel;html=1;align=center;verticalAlign=middle;resizable=0;points=[];" vertex="1" connectable="0" parent="OKzWQZcMFeufaeWFBpB0-7">
          <mxGeometry x="-0.318" y="-1" relative="1" as="geometry">
            <mxPoint as="offset" />
          </mxGeometry>
        </mxCell>
        <mxCell id="OKzWQZcMFeufaeWFBpB0-1" value="&lt;div&gt;&lt;u&gt;Step 1:&lt;/u&gt;&lt;/div&gt;Predicting&lt;b&gt; pay-or-okay model&lt;/b&gt; for given website characteristics (yes/no)" style="rounded=0;whiteSpace=wrap;html=1;" vertex="1" parent="1">
          <mxGeometry x="90" y="230" width="120" height="90" as="geometry" />
        </mxCell>
        <mxCell id="OKzWQZcMFeufaeWFBpB0-5" style="edgeStyle=orthogonalEdgeStyle;rounded=0;orthogonalLoop=1;jettySize=auto;html=1;" edge="1" parent="1" source="OKzWQZcMFeufaeWFBpB0-3" target="OKzWQZcMFeufaeWFBpB0-4">
          <mxGeometry relative="1" as="geometry" />
        </mxCell>
        <mxCell id="OKzWQZcMFeufaeWFBpB0-10" value="No" style="edgeLabel;html=1;align=center;verticalAlign=middle;resizable=0;points=[];" vertex="1" connectable="0" parent="OKzWQZcMFeufaeWFBpB0-5">
          <mxGeometry x="-0.0198" y="3" relative="1" as="geometry">
            <mxPoint as="offset" />
          </mxGeometry>
        </mxCell>
        <mxCell id="OKzWQZcMFeufaeWFBpB0-11" style="edgeStyle=orthogonalEdgeStyle;rounded=0;orthogonalLoop=1;jettySize=auto;html=1;entryX=0.5;entryY=0;entryDx=0;entryDy=0;" edge="1" parent="1" source="OKzWQZcMFeufaeWFBpB0-3">
          <mxGeometry relative="1" as="geometry">
            <mxPoint x="320" y="340" as="targetPoint" />
          </mxGeometry>
        </mxCell>
        <mxCell id="OKzWQZcMFeufaeWFBpB0-13" value="Yes" style="edgeLabel;html=1;align=center;verticalAlign=middle;resizable=0;points=[];" vertex="1" connectable="0" parent="OKzWQZcMFeufaeWFBpB0-11">
          <mxGeometry x="-0.3759" y="1" relative="1" as="geometry">
            <mxPoint as="offset" />
          </mxGeometry>
        </mxCell>
        <mxCell id="OKzWQZcMFeufaeWFBpB0-3" value="&lt;div&gt;&lt;u&gt;Step 2:&lt;/u&gt;&lt;/div&gt;Predict &lt;b&gt;bundle service&lt;/b&gt; (yes/no)" style="rounded=0;whiteSpace=wrap;html=1;" vertex="1" parent="1">
          <mxGeometry x="260" y="240" width="120" height="60" as="geometry" />
        </mxCell>
        <mxCell id="OKzWQZcMFeufaeWFBpB0-4" value="&lt;div&gt;&lt;u&gt;Step 3:&lt;/u&gt;&lt;/div&gt;Predict the &lt;b&gt;price&lt;/b&gt; of pay-or-okay model" style="rounded=0;whiteSpace=wrap;html=1;" vertex="1" parent="1">
          <mxGeometry x="430" y="240" width="120" height="60" as="geometry" />
        </mxCell>
        <mxCell id="OKzWQZcMFeufaeWFBpB0-8" value="Inform managers about pay-or-okay models&amp;nbsp;" style="rounded=0;whiteSpace=wrap;html=1;" vertex="1" parent="1">
          <mxGeometry x="90" y="360" width="120" height="60" as="geometry" />
        </mxCell>
        <mxCell id="OKzWQZcMFeufaeWFBpB0-12" value="Price need not to be determined. Show the current solution and inform about the difference between the two" style="rounded=0;whiteSpace=wrap;html=1;" vertex="1" parent="1">
          <mxGeometry x="245" y="340" width="150" height="80" as="geometry" />
        </mxCell>
      </root>
    </mxGraphModel>
  </diagram>
</mxfile>
